<svg width="21" height="24" viewBox="0 0 21 24" fill="none" xmlns="http://www.w3.org/2000/svg">
<path d="M10.4973 0C5.66495 0 1.74729 3.91767 1.74729 8.75V13.7008L0.111622 17.4078C0.0235131 17.6076 -0.0133705 17.8262 0.00431183 18.0438C0.0219941 18.2614 0.0936836 18.4712 0.212887 18.6541C0.332091 18.837 0.495042 18.9873 0.686983 19.0914C0.878924 19.1954 1.09379 19.2499 1.31212 19.25H19.6825C19.9008 19.2499 20.1156 19.1954 20.3076 19.0914C20.4995 18.9873 20.6625 18.837 20.7817 18.6541C20.9009 18.4712 20.9726 18.2614 20.9903 18.0438C21.0079 17.8262 20.9711 17.6076 20.883 17.4078L19.2473 13.7008V8.75C19.2473 3.91767 15.3296 0 10.4973 0ZM10.4973 23.3333C9.67007 23.3335 8.86955 23.0406 8.23771 22.5067C7.60588 21.9728 7.18357 21.2323 7.0457 20.4167H13.9489C13.811 21.2323 13.3887 21.9728 12.7569 22.5067C12.125 23.0406 11.3245 23.3335 10.4973 23.3333Z" fill="black"/>
</svg>
