<svg width="13" height="12" viewBox="0 0 13 12" fill="none" xmlns="http://www.w3.org/2000/svg">
<path fill-rule="evenodd" clip-rule="evenodd" d="M12.21 11.2831L0.624984 11.2837C0.515275 11.2837 0.4075 11.2548 0.31249 11.2C0.21748 11.1451 0.138583 11.0662 0.0837301 10.9712C0.0288768 10.8762 -6.96769e-07 10.7684 0 10.6587C6.96795e-07 10.549 0.0288796 10.4412 0.0837342 10.3462L5.87498 0.312472C5.92984 0.217468 6.00874 0.138576 6.10375 0.083726C6.19876 0.0288759 6.30653 0 6.41623 0C6.52594 0 6.63371 0.0288759 6.72872 0.083726C6.82373 0.138576 6.90263 0.217468 6.95748 0.312472L12.7512 10.3456C12.8061 10.4406 12.835 10.5484 12.835 10.6581C12.835 10.7678 12.8061 10.8756 12.7512 10.9706C12.6964 11.0656 12.6175 11.1445 12.5225 11.1994C12.4275 11.2542 12.3197 11.2831 12.21 11.2831ZM5.94748 4.0906L6.01998 7.63185H6.81498L6.88811 4.0906H5.94748ZM6.41623 9.4481C6.71623 9.4481 6.95061 9.21747 6.95061 8.9281C6.95061 8.63872 6.71623 8.41185 6.41561 8.41185C6.34665 8.41018 6.27805 8.42229 6.21383 8.44746C6.14961 8.47263 6.09105 8.51035 6.04158 8.55842C5.99211 8.60649 5.95273 8.66395 5.92573 8.72742C5.89874 8.7909 5.88467 8.85912 5.88436 8.9281C5.88436 9.21747 6.11873 9.4481 6.41561 9.4481H6.41623Z" fill="#D5AB50"/>
</svg>
