<svg width="21" height="24" viewBox="0 0 21 24" fill="none" xmlns="http://www.w3.org/2000/svg">
<path fill-rule="evenodd" clip-rule="evenodd" d="M11.3371 0C11.0719 0 10.8175 0.105357 10.63 0.292893C10.4425 0.48043 10.3371 0.734784 10.3371 1V2.5C10.3371 2.76522 10.4425 3.01957 10.63 3.20711C10.8175 3.39464 11.0719 3.5 11.3371 3.5C11.6023 3.5 11.8567 3.39464 12.0442 3.20711C12.2318 3.01957 12.3371 2.76522 12.3371 2.5V1C12.3371 0.734784 12.2318 0.48043 12.0442 0.292893C11.8567 0.105357 11.6023 0 11.3371 0ZM2.83711 10.5C2.5719 10.5 2.31754 10.3946 2.13001 10.2071C1.94247 10.0196 1.83711 9.76522 1.83711 9.5C1.83711 9.23478 1.94247 8.98043 2.13001 8.79289C2.31754 8.60536 2.5719 8.5 2.83711 8.5H4.33711C4.60233 8.5 4.85668 8.60536 5.04422 8.79289C5.23176 8.98043 5.33711 9.23478 5.33711 9.5C5.33711 9.76522 5.23176 10.0196 5.04422 10.2071C4.85668 10.3946 4.60233 10.5 4.33711 10.5H2.83711ZM19.8371 10.5C20.1023 10.5 20.3567 10.3946 20.5442 10.2071C20.7318 10.0196 20.8371 9.76522 20.8371 9.5C20.8371 9.23478 20.7318 8.98043 20.5442 8.79289C20.3567 8.60536 20.1023 8.5 19.8371 8.5H18.3371C18.0719 8.5 17.8175 8.60536 17.63 8.79289C17.4425 8.98043 17.3371 9.23478 17.3371 9.5C17.3371 9.76522 17.4425 10.0196 17.63 10.2071C17.8175 10.3946 18.0719 10.5 18.3371 10.5H19.8371ZM4.61911 4.1975C4.4316 4.00993 4.32629 3.75555 4.32634 3.49032C4.32638 3.2251 4.43179 2.97076 4.61936 2.78325C4.80694 2.59574 5.06132 2.49043 5.32654 2.49047C5.59176 2.49052 5.8461 2.59593 6.03361 2.7835L7.09411 3.8435C7.18702 3.93634 7.26074 4.04658 7.31104 4.16791C7.36135 4.28924 7.38727 4.4193 7.38731 4.55065C7.38736 4.68199 7.36154 4.81207 7.31131 4.93343C7.26109 5.0548 7.18746 5.16509 7.09461 5.258C7.00177 5.35091 6.89153 5.42462 6.7702 5.47493C6.64887 5.52524 6.51881 5.55116 6.38747 5.5512C6.25612 5.55125 6.12605 5.52542 6.00468 5.4752C5.88331 5.42498 5.77302 5.35134 5.68011 5.2585L4.61911 4.1975ZM18.0541 2.7835C18.2416 2.97103 18.3469 3.22534 18.3469 3.4905C18.3469 3.75566 18.2416 4.00997 18.0541 4.1975L16.9931 5.258C16.9009 5.35351 16.7905 5.42969 16.6685 5.4821C16.5465 5.53451 16.4153 5.5621 16.2825 5.56325C16.1497 5.5644 16.0181 5.5391 15.8952 5.48882C15.7723 5.43854 15.6606 5.36429 15.5667 5.27039C15.4728 5.1765 15.3986 5.06485 15.3483 4.94195C15.298 4.81906 15.2727 4.68738 15.2739 4.5546C15.275 4.42182 15.3026 4.2906 15.355 4.1686C15.4074 4.04659 15.4836 3.93625 15.5791 3.844L16.6396 2.7835C16.7325 2.6906 16.8427 2.6169 16.9641 2.56662C17.0854 2.51634 17.2155 2.49046 17.3469 2.49046C17.4782 2.49046 17.6083 2.51634 17.7296 2.56662C17.851 2.6169 17.9612 2.6906 18.0541 2.7835ZM11.1116 4.77C11.2584 4.63582 11.4525 4.56544 11.6512 4.57435C11.8499 4.58326 12.0369 4.67072 12.1711 4.8175L12.1726 4.819L12.1741 4.821L12.1791 4.826L12.1941 4.843L12.2441 4.9015C12.2874 4.9515 12.3488 5.026 12.4281 5.125C12.5876 5.325 12.8206 5.629 13.1271 6.062C13.7396 6.927 14.6481 8.3075 15.8501 10.39C17.0526 12.472 17.7936 13.9485 18.2366 14.9125C18.4008 15.2659 18.5548 15.6238 18.6986 15.986C18.7433 16.0996 18.7856 16.2142 18.8256 16.3295L18.8326 16.351L18.8351 16.358L18.8361 16.3615V16.3625C18.8938 16.5503 18.8755 16.7532 18.7851 16.9276C18.6948 17.102 18.5396 17.2341 18.3529 17.2953C18.1663 17.3565 17.9631 17.3421 17.787 17.2551C17.6108 17.1681 17.4759 17.0154 17.4111 16.83C16.7886 17.039 16.1561 17.245 15.5201 17.4465C15.3211 16.9618 15.1116 16.4815 14.8916 16.006C14.2756 14.6783 13.6004 13.3788 12.8681 12.1115C12.1371 10.8437 11.3496 9.60931 10.5081 8.412C10.2065 7.98427 9.89559 7.56317 9.57561 7.149C10.0681 6.699 10.5626 6.254 11.0551 5.8195C10.9251 5.67206 10.8582 5.47948 10.8688 5.2832C10.8793 5.08692 10.9665 4.90264 11.1116 4.77ZM14.0166 17.735C14.0393 17.788 14.0614 17.841 14.0831 17.894C13.0631 18.2065 12.0481 18.506 11.0671 18.787L11.2056 19.303C11.4318 20.1472 11.3134 21.0468 10.8764 21.8037C10.4394 22.5607 9.71961 23.113 8.87536 23.3393C8.03111 23.5655 7.13157 23.4471 6.37463 23.0101C5.61768 22.5731 5.06534 21.8533 4.83911 21.009L4.70611 20.513C4.21611 20.638 3.79611 20.7445 3.46111 20.828C2.63661 21.034 1.73861 20.756 1.20961 20.037C1.01961 19.778 0.807113 19.472 0.636113 19.175C0.466034 18.8744 0.312473 18.5648 0.176113 18.2475C-0.181887 17.43 0.0261126 16.513 0.617113 15.902C1.92211 14.552 5.06311 11.344 8.46911 8.17L8.57261 8.305C8.74011 8.526 8.98361 8.854 9.28211 9.277C10.0976 10.4373 10.8607 11.6335 11.5691 12.862C12.2788 14.0898 12.9331 15.3487 13.5301 16.635C13.7476 17.105 13.9101 17.48 14.0171 17.735H14.0166ZM6.64161 20.008L6.77111 20.491C6.81511 20.6553 6.89103 20.8094 6.99456 20.9443C7.09808 21.0793 7.22718 21.1926 7.37448 21.2776C7.52177 21.3627 7.68439 21.418 7.85303 21.4402C8.02167 21.4624 8.19305 21.4512 8.35736 21.4072C8.52168 21.3633 8.67572 21.2873 8.81069 21.1838C8.94567 21.0803 9.05893 20.9512 9.14401 20.8039C9.22909 20.6566 9.28433 20.494 9.30657 20.3253C9.3288 20.1567 9.31761 19.9853 9.27361 19.821L9.14211 19.33C8.24861 19.5775 7.40611 19.805 6.64161 20.008Z" fill="#FF0E0E"/>
</svg>
