<svg width="59" height="49" viewBox="0 0 59 49" fill="none" xmlns="http://www.w3.org/2000/svg">
<path d="M36.1466 7.5H51.0791C52.1213 7.49989 53.1521 7.717 54.1057 8.13747C55.0593 8.55794 55.9148 9.17254 56.6177 9.94208C57.3205 10.7116 57.8553 11.6192 58.1878 12.6069C58.5204 13.5946 58.6434 14.6408 58.5491 15.6788L56.1603 41.9287C55.991 43.7922 55.1312 45.525 53.7498 46.7871C52.3684 48.0491 50.5652 48.7493 48.6941 48.75H9.88532C8.01421 48.7493 6.21095 48.0491 4.82956 46.7871C3.44816 45.525 2.5884 43.7922 2.41907 41.9287L0.0303176 15.6788C-0.126293 13.9419 0.327207 12.2049 1.31282 10.7663L1.16657 7.5C1.16657 5.51088 1.95674 3.60322 3.36327 2.1967C4.76979 0.790176 6.67744 0 8.66657 0H22.4366C24.4255 0.000424781 26.3329 0.79088 27.7391 2.1975L30.8441 5.3025C32.2503 6.70912 34.1576 7.49958 36.1466 7.5ZM4.93907 7.95C5.74407 7.6525 6.59907 7.5025 7.50407 7.5H27.7391L25.0878 4.84875C24.3847 4.14544 23.431 3.75021 22.4366 3.75H8.66657C7.68423 3.74982 6.74104 4.13512 6.03979 4.82304C5.33854 5.51096 4.93523 6.44659 4.91657 7.42875L4.93907 7.95Z" fill="#807E7E"/>
</svg>
