<svg width="22" height="24" viewBox="0 0 22 24" fill="none" xmlns="http://www.w3.org/2000/svg">
<path d="M0 20.6667V8.66667C0 8.24445 0.0946664 7.84445 0.284 7.46667C0.473333 7.08889 0.734223 6.77778 1.06667 6.53333L9.06667 0.533334C9.53333 0.177778 10.0667 0 10.6667 0C11.2667 0 11.8 0.177778 12.2667 0.533334L20.2667 6.53333C20.6 6.77778 20.8613 7.08889 21.0507 7.46667C21.24 7.84445 21.3342 8.24445 21.3333 8.66667V20.6667C21.3333 21.4 21.072 22.028 20.5493 22.5507C20.0267 23.0733 19.3991 23.3342 18.6667 23.3333H14.6667C14.2889 23.3333 13.9724 23.2053 13.7173 22.9493C13.4622 22.6933 13.3342 22.3769 13.3333 22V15.3333C13.3333 14.9556 13.2053 14.6391 12.9493 14.384C12.6933 14.1289 12.3769 14.0009 12 14H9.33333C8.95556 14 8.63911 14.128 8.384 14.384C8.12889 14.64 8.00089 14.9564 8 15.3333V22C8 22.3778 7.872 22.6947 7.616 22.9507C7.36 23.2067 7.04356 23.3342 6.66667 23.3333H2.66667C1.93333 23.3333 1.30578 23.0724 0.784 22.5507C0.262222 22.0289 0.000888889 21.4009 0 20.6667Z" fill="black"/>
</svg>
