<svg width="26" height="20" viewBox="0 0 26 20" fill="none" xmlns="http://www.w3.org/2000/svg">
<path fill-rule="evenodd" clip-rule="evenodd" d="M0 2.6C0 1.91044 0.273928 1.24912 0.761522 0.761523C1.24912 0.273928 1.91044 0 2.6 0H23.4C24.0896 0 24.7509 0.273928 25.2385 0.761523C25.7261 1.24912 26 1.91044 26 2.6V16.4667C26 17.1562 25.7261 17.8176 25.2385 18.3051C24.7509 18.7927 24.0896 19.0667 23.4 19.0667H2.6C1.91044 19.0667 1.24912 18.7927 0.761522 18.3051C0.273928 17.8176 0 17.1562 0 16.4667L0 2.6ZM5.2 6.93333C5.2 6.01392 5.56524 5.13216 6.21536 4.48203C6.86549 3.8319 7.74725 3.46667 8.66667 3.46667C9.58608 3.46667 10.4678 3.8319 11.118 4.48203C11.7681 5.13216 12.1333 6.01392 12.1333 6.93333C12.1333 7.85275 11.7681 8.73451 11.118 9.38464C10.4678 10.0348 9.58608 10.4 8.66667 10.4C7.74725 10.4 6.86549 10.0348 6.21536 9.38464C5.56524 8.73451 5.2 7.85275 5.2 6.93333ZM20.8 6.93333H15.6V5.2H20.8V6.93333ZM20.8 12.1333H15.6V10.4H20.8V12.1333ZM8.66667 12.1333C7.72459 12.1339 6.80124 12.3965 5.99986 12.8918C5.19847 13.3871 4.55065 14.0955 4.1288 14.9379L3.5568 16.0784C3.49052 16.2107 3.45921 16.3577 3.46583 16.5055C3.47246 16.6533 3.5168 16.7969 3.59465 16.9227C3.67249 17.0485 3.78124 17.1523 3.91054 17.2242C4.03985 17.296 4.1854 17.3336 4.33333 17.3333H13C13.1478 17.3333 13.2931 17.2955 13.4222 17.2235C13.5513 17.1515 13.6598 17.0477 13.7374 16.922C13.8151 16.7962 13.8592 16.6527 13.8658 16.505C13.8723 16.3574 13.841 16.2105 13.7748 16.0784L13.2045 14.9379C12.7827 14.0955 12.1349 13.3871 11.3335 12.8918C10.5321 12.3965 9.60875 12.1339 8.66667 12.1333Z" fill="black"/>
</svg>
