<svg width="22" height="22" viewBox="0 0 22 22" fill="none" xmlns="http://www.w3.org/2000/svg">
<path d="M14.6667 22L7.33333 19.4333L1.65 21.6333C1.24259 21.7963 0.865741 21.7507 0.519444 21.4964C0.173148 21.2422 0 20.9008 0 20.4722V3.36111C0 3.0963 0.0765925 2.86204 0.229778 2.65833C0.382963 2.45463 0.591556 2.30185 0.855556 2.2L7.33333 0L14.6667 2.56667L20.35 0.366667C20.7574 0.203704 21.1343 0.249741 21.4806 0.504778C21.8269 0.759815 22 1.10081 22 1.52778V18.6389C22 18.9037 21.9238 19.138 21.7714 19.3417C21.6191 19.5454 21.4101 19.6981 21.1444 19.8L14.6667 22ZM13.4444 19.0056V4.70556L8.55556 2.99444V17.2944L13.4444 19.0056Z" fill="black"/>
</svg>
