<svg width="22" height="23" viewBox="0 0 22 23" fill="none" xmlns="http://www.w3.org/2000/svg">
<path d="M14.4547 1.65445C13.4665 0.587539 12.0862 0 10.5628 0C9.03123 0 7.64642 0.583984 6.66279 1.6443C5.66849 2.71629 5.18404 4.1732 5.29779 5.74641C5.52326 8.85016 7.8851 11.375 10.5628 11.375C13.2405 11.375 15.5983 8.85067 15.8273 5.74742C15.9426 4.18844 15.4551 2.73457 14.4547 1.65445ZM19.5003 22.75H1.62529C1.39132 22.753 1.15962 22.7039 0.947038 22.6061C0.734456 22.5084 0.546343 22.3644 0.396384 22.1848C0.0663061 21.7902 -0.0667408 21.2514 0.0317748 20.7066C0.460369 18.329 1.79795 16.3318 3.90029 14.9297C5.76803 13.685 8.13392 13 10.5628 13C12.9917 13 15.3576 13.6855 17.2253 14.9297C19.3276 16.3313 20.6652 18.3285 21.0938 20.7061C21.1923 21.2509 21.0593 21.7897 20.7292 22.1843C20.5793 22.364 20.3912 22.508 20.1786 22.6059C19.966 22.7038 19.7343 22.753 19.5003 22.75Z" fill="black"/>
</svg>
